<svg width="225" height="225" viewBox="0 0 225 225" fill="none" xmlns="http://www.w3.org/2000/svg">
<rect x="1.01135" y="58.2954" width="47.5281" height="166.705" rx="2.46818" fill="#84CB87"/>
<ellipse cx="24.7753" cy="25.0568" rx="24.7753" ry="25.0568" fill="#F45A08"/>
<rect x="59.6628" width="48.5393" height="49.0909" rx="2.46818" fill="#EB7629"/>
<rect x="59.6628" y="58.2954" width="48.5393" height="49.0909" rx="2.46818" fill="#F79B12"/>
<path d="M116.292 2.52447C116.292 1.13955 117.439 0.0231538 118.823 0.0857802C177.909 2.76039 225 52.0526 225 112.47C225 174.602 175.198 224.97 113.764 224.97H65.2246C64.1492 224.97 63.0774 224.954 62.0093 224.923C60.6944 224.885 59.6628 223.797 59.6628 222.482V121.075C59.6628 119.711 60.7679 118.606 62.131 118.606H113.824C115.187 118.606 116.292 117.501 116.292 116.138V2.52447Z" fill="#535294"/>
<path d="M219.662 178.721L176.739 221.68C175.703 222.717 176.437 224.489 177.903 224.489H220.826C221.735 224.489 222.472 223.752 222.472 222.843V179.884C222.472 178.418 220.699 177.684 219.662 178.721Z" fill="#404040"/>
</svg>
